<?xml version="1.0" encoding="iso-8859-1"?>
<!-- Generator: Adobe Illustrator 19.0.0, SVG Export Plug-In . SVG Version: 6.00 Build 0)  -->
<svg version="1.1" id="Layer_1" xmlns="http://www.w3.org/2000/svg" xmlns:xlink="http://www.w3.org/1999/xlink" x="0px" y="0px"
	 viewBox="0 0 512 512" style="enable-background:new 0 0 512 512;" xml:space="preserve">
<g>
	<g>
		<path d="M375.11,33.568c-49.671,0-95.091,27.134-119.11,69.393c-24.019-42.259-69.439-69.393-119.11-69.393
			C61.408,33.568,0,94.976,0,170.457c0,69.159,74.159,146.148,129.943,198.045c29.208,27.173,118.379,106.551,119.277,107.35
			c1.933,1.721,4.357,2.58,6.78,2.58s4.848-0.86,6.781-2.581c0.897-0.798,90.067-80.177,119.277-107.35
			C437.841,316.606,512,239.616,512,170.457C512,94.976,450.592,33.568,375.11,33.568z M368.165,353.567
			c-24.326,22.631-90.709,81.882-112.164,101.007c-21.455-19.125-87.838-78.376-112.164-101.007
			c-14.989-13.944-50.09-46.6-77.946-82.453c-30.187-38.853-45.492-72.718-45.492-100.656c0-64.234,52.258-116.491,116.491-116.491
			c48.842,0,92.857,30.831,109.524,76.718c1.465,4.033,5.295,6.717,9.586,6.717c4.291,0,8.122-2.684,9.586-6.717
			c16.668-45.887,60.682-76.718,109.524-76.718c64.234,0,116.491,52.258,116.491,116.491c0,27.938-15.306,61.803-45.492,100.656
			C418.255,306.967,383.154,339.622,368.165,353.567z"/>
	</g>
</g>
<g>
	<g>
		<path d="M388.697,302.76c-3.837-4.125-10.291-4.358-14.415-0.52c-1.469,1.367-3.088,2.864-4.84,4.476
			c-4.145,3.815-4.411,10.268-0.597,14.411c2.011,2.186,4.754,3.292,7.507,3.292c2.469,0,4.946-0.891,6.905-2.696
			c1.78-1.639,3.427-3.161,4.919-4.55C392.301,313.338,392.534,306.884,388.697,302.76z"/>
	</g>
</g>
<g>
	<g>
		<path d="M356.383,332.43c-3.776-4.182-10.225-4.51-14.405-0.735c-18.992,17.148-40.966,36.824-56.057,50.311
			c-4.2,3.754-4.561,10.201-0.808,14.401c2.014,2.254,4.805,3.402,7.608,3.402c2.419,0,4.848-0.856,6.793-2.595
			c15.108-13.502,37.111-33.203,56.134-50.379C359.828,343.06,360.157,336.61,356.383,332.43z"/>
	</g>
</g>
<g>
</g>
<g>
</g>
<g>
</g>
<g>
</g>
<g>
</g>
<g>
</g>
<g>
</g>
<g>
</g>
<g>
</g>
<g>
</g>
<g>
</g>
<g>
</g>
<g>
</g>
<g>
</g>
<g>
</g>
</svg>
